<svg width="85" height="79" viewBox="0 0 85 79" fill="none" xmlns="http://www.w3.org/2000/svg">
<path fill-rule="evenodd" clip-rule="evenodd" d="M65.541 59.6355H18.0068C14.7153 59.6355 12.1014 57.0216 12.1014 53.7301V45.8884C4.84055 42.5968 0 35.2392 0 27.3007C0 16.1674 9.10023 7.0672 20.2335 7.0672C21.8793 7.0672 23.5251 7.26082 25.074 7.64806C29.5273 2.80752 35.9169 0 42.5 0C49.18 0 55.4727 2.80752 59.926 7.64806C61.5718 7.26082 63.1207 7.0672 64.7665 7.0672C75.8998 7.0672 85 16.1674 85 27.3007C85 36.0137 79.385 43.7585 71.2528 46.4692V53.6333C71.4465 56.9248 68.7358 59.6355 65.541 59.6355ZM65.1646 68.4416H17.3401C16.5656 68.4416 15.8879 67.7639 15.8879 66.9894C15.8879 66.2149 16.5656 65.5373 17.3401 65.5373H65.1646C65.9391 65.5373 66.6168 66.2149 66.6168 66.9894C66.6168 67.7639 65.9391 68.4416 65.1646 68.4416ZM25.8179 76.9195C25.8179 77.694 26.2302 78.3717 26.7014 78.3717H55.7966C56.2678 78.3717 56.6801 77.694 56.6801 76.9195C56.6801 76.145 56.2678 75.4673 55.7966 75.4673H26.7014C26.2302 75.4673 25.8179 76.145 25.8179 76.9195Z" fill="#F4F4F4"/>
</svg>
