<svg aria-hidden="true" style="position: absolute; width: 0; height: 0; overflow: hidden;" version="1.1" xmlns="http://www.w3.org/2000/svg" xmlns:xlink="http://www.w3.org/1999/xlink">
<defs>
<symbol id="icon-facebook-box" viewBox="0 0 32 32">
<title>facebook-box</title>
<path fill="#8dbb5a" style="fill: var(--color1, #8dbb5a)" d="M30.24 1.76c-1.173-1.173-2.587-1.76-4.239-1.76h-20c-1.653 0-3.066 0.587-4.24 1.76s-1.76 2.587-1.76 4.24v20c0 1.653 0.587 3.066 1.76 4.24s2.587 1.761 4.24 1.761h20c1.653 0 3.066-0.587 4.239-1.761s1.761-2.587 1.761-4.24v-20c0-1.653-0.587-3.066-1.76-4.24v0zM27.229 16.458h-3.646v13.229h-5.458v-13.229h-2.729v-4.563h2.729v-2.729c0-1.958 0.458-3.438 1.375-4.438s2.43-1.5 4.542-1.5h3.646v4.563h-2.291c-0.778 0-1.274 0.135-1.49 0.406s-0.323 0.746-0.323 1.427v2.271h4.125l-0.479 4.563z"></path>
</symbol>
<symbol id="icon-hat-fill" viewBox="0 0 43 32">
<title>hat-fill</title>
<path fill="#8dbb5a" style="fill: var(--color1, #8dbb5a)" d="M10.741 5.831c-4.768 0-8.621 4.068-8.621 9.102 0 3.763 2.216 7.169 5.539 8.491 0.289 0.102 0.482 0.407 0.482 0.712v4.627c0 0.864 0.674 1.576 1.493 1.576h23.648c0.819 0 1.493-0.712 1.493-1.576v-4.322c0-0.356 0.193-0.661 0.53-0.712 3.709-1.119 6.31-4.729 6.31-8.796 0-5.034-3.853-9.102-8.621-9.102-0.819 0-1.686 0.153-2.456 0.356-0.289 0.102-0.578 0-0.771-0.254-1.975-2.441-4.864-3.813-7.899-3.813s-5.924 1.373-7.899 3.813c-0.193 0.203-0.482 0.305-0.771 0.254-0.771-0.254-1.589-0.356-2.456-0.356z"></path>
<path fill="#8dbb5a" style="fill: var(--color1, #8dbb5a)" d="M13.58 5.587c2.072-2.549 5.102-3.987 8.287-3.987 3.193 0 6.231 1.445 8.303 4.006l0.030 0.037c0.032 0.036 0.060 0.051 0.080 0.058 0.022 0.007 0.049 0.009 0.084-0.004l0.285-0.1 0.006 0.024c0.735-0.179 1.55-0.309 2.337-0.309 5.081 0 9.141 4.327 9.141 9.621 0 4.283-2.738 8.105-6.679 9.294l-0.036 0.011-0.037 0.006c-0.015 0.002-0.031 0.010-0.047 0.031-0.017 0.023-0.041 0.074-0.041 0.167v4.322c0 1.124-0.88 2.096-2.013 2.096h-23.648c-1.133 0-2.013-0.972-2.013-2.096v-4.627c0-0.11-0.077-0.201-0.135-0.222l-0.265-0.093 0.005-0.014c-3.401-1.471-5.627-5.005-5.627-8.875 0-5.294 4.059-9.621 9.141-9.621 0.891 0 1.752 0.103 2.574 0.367 0.099 0.009 0.196-0.027 0.264-0.093zM7.706 23.443c-0.015-0.007-0.031-0.013-0.047-0.019l0.004 0.001c0.015 0.005 0.029 0.011 0.043 0.017zM30.528 6.19l0.009-0.003c-0 0 0-0 0 0-0.003 0.001-0.006 0.002-0.009 0.003zM21.867 2.639c-2.875 0-5.617 1.3-7.495 3.621 0 0 0 0 0 0l-0.189 0.234-0.034-0.032c-0.293 0.21-0.667 0.303-1.041 0.237l-0.037-0.007-0.036-0.012c-0.705-0.233-1.467-0.33-2.294-0.33-4.455 0-8.102 3.808-8.102 8.582 0 3.562 2.096 6.765 5.203 8.005 0.515 0.187 0.817 0.703 0.817 1.198v4.627c0 0.604 0.467 1.057 0.973 1.057h23.648c0.506 0 0.973-0.453 0.973-1.057v-4.322c0-0.509 0.286-1.098 0.929-1.219 3.46-1.059 5.91-4.448 5.91-8.29 0-4.774-3.647-8.582-8.102-8.582-0.754 0-1.567 0.14-2.306 0.334-0.517 0.171-1.021-0.030-1.329-0.431-1.877-2.317-4.617-3.615-7.49-3.615zM13.178 6.181c0.006 0.002 0.013 0.004 0.019 0.006 0 0-0 0 0 0l-0.019-0.006zM13.221 6.191c0 0-0-0 0 0zM35.306 23.729c0 0-0 0 0 0l-0.016 0.003c-0.305 0.053-0.491 0.319-0.513 0.644 0.022-0.332 0.217-0.599 0.529-0.647z"></path>
</symbol>
<symbol id="icon-hat-outline" viewBox="0 0 43 32">
<title>hat-outline</title>
<path fill="#8dbb5a" style="fill: var(--color1, #8dbb5a)" d="M33.486 30.48h-24.286c-1.682 0-3.017-1.336-3.017-3.018v-4.008c-3.71-1.682-6.183-5.443-6.183-9.5 0-5.69 4.65-10.341 10.338-10.341 0.841 0 1.682 0.099 2.473 0.297 2.275-2.474 5.54-3.909 8.903-3.909 3.413 0 6.628 1.435 8.903 3.909 0.841-0.198 1.632-0.297 2.473-0.297 5.688 0 10.338 4.651 10.338 10.341 0 4.453-2.869 8.412-7.024 9.797v3.662c0.099 1.682-1.286 3.068-2.918 3.068v0zM10.338 5.097c-4.897 0-8.854 3.958-8.854 8.857 0 3.662 2.275 6.977 5.688 8.263 0.297 0.099 0.495 0.396 0.495 0.693v4.503c0 0.841 0.692 1.534 1.533 1.534h24.286c0.841 0 1.534-0.693 1.534-1.534v-4.206c0-0.346 0.198-0.643 0.544-0.693 3.809-1.089 6.48-4.602 6.48-8.56 0-4.899-3.957-8.857-8.854-8.857-0.841 0-1.731 0.148-2.523 0.346-0.297 0.099-0.594 0-0.792-0.247-2.028-2.375-4.996-3.711-8.112-3.711s-6.084 1.336-8.112 3.711c-0.198 0.198-0.495 0.297-0.791 0.247-0.791-0.247-1.632-0.346-2.523-0.346v0z"></path>
</symbol>
<symbol id="icon-menu" viewBox="0 0 25 32">
<title>menu</title>
<path fill="#8dbb5a" style="fill: var(--color1, #8dbb5a)" d="M9.897 0.002c-0.298 0-0.556 0.113-0.773 0.339s-0.326 0.494-0.326 0.803v7.428c0 0.309-0.109 0.577-0.326 0.803s-0.475 0.339-0.773 0.339-0.556-0.113-0.773-0.339c-0.218-0.226-0.326-0.494-0.326-0.803v-7.428c0-0.309-0.109-0.577-0.326-0.803s-0.476-0.339-0.773-0.339-0.555 0.113-0.773 0.339c-0.218 0.226-0.326 0.494-0.326 0.803v7.428c0 0.309-0.109 0.577-0.326 0.803s-0.475 0.339-0.773 0.339c-0.298 0-0.556-0.113-0.773-0.339s-0.326-0.494-0.326-0.803v-7.428c0-0.309-0.109-0.577-0.326-0.803s-0.475-0.339-0.773-0.339c-0.298 0-0.556 0.113-0.773 0.339s-0.326 0.494-0.326 0.803v11.428c0 0.726 0.203 1.387 0.61 1.982s0.936 1.012 1.589 1.25v13.91c0 0.619 0.218 1.154 0.653 1.607s0.951 0.679 1.546 0.679h2.199c0.596 0 1.111-0.227 1.546-0.679s0.653-0.988 0.653-1.607v-13.91c0.653-0.238 1.182-0.655 1.589-1.25s0.61-1.256 0.61-1.982v-11.428c0-0.309-0.109-0.577-0.326-0.803s-0.475-0.339-0.773-0.339v0z"></path>
<path fill="#8dbb5a" style="fill: var(--color1, #8dbb5a)" d="M23.864 0.339c-0.218-0.226-0.475-0.339-0.773-0.339h-4.398c-1.512 0-2.806 0.56-3.883 1.679s-1.615 2.464-1.615 4.036v14.285c0 0.155 0.055 0.289 0.163 0.402s0.238 0.169 0.386 0.169h3.848v9.143c0 0.619 0.218 1.154 0.653 1.607s0.951 0.679 1.546 0.679h2.199c0.596 0 1.111-0.226 1.546-0.679s0.653-0.988 0.653-1.607v-28.57c-0-0.309-0.109-0.577-0.327-0.803v0z"></path>
</symbol>
<symbol id="icon-pinterest-box" viewBox="0 0 31 32">
<title>pinterest-box</title>
<path fill="#8dbb5a" style="fill: var(--color1, #8dbb5a)" d="M29.264 1.704c-1.135-1.136-2.503-1.704-4.102-1.704v-0h-19.355c-1.599 0-2.967 0.568-4.103 1.704s-1.704 2.504-1.704 4.103v19.355c0 1.599 0.568 2.967 1.704 4.103s2.504 1.704 4.103 1.704h3.69c-0.229-2.070-0.182-3.777 0.141-5.121l1.976-8.347c-0.323-0.659-0.484-1.472-0.484-2.44 0-1.116 0.286-2.053 0.857-2.813s1.267-1.139 2.087-1.139c0.658 0 1.166 0.218 1.522 0.655s0.534 0.985 0.534 1.643c0 0.417-0.074 0.917-0.222 1.502s-0.346 1.27-0.595 2.057c-0.249 0.786-0.427 1.408-0.534 1.865-0.188 0.806-0.034 1.502 0.464 2.087s1.149 0.877 1.956 0.877c1.425 0 2.591-0.793 3.498-2.379s1.361-3.508 1.361-5.766c0-1.734-0.561-3.145-1.684-4.234s-2.684-1.633-4.687-1.633c-2.244 0-4.062 0.716-5.454 2.147s-2.087 3.155-2.087 5.172c0 1.183 0.336 2.191 1.008 3.025 0.228 0.255 0.302 0.538 0.222 0.847-0.067 0.229-0.168 0.638-0.302 1.23-0.054 0.188-0.151 0.316-0.293 0.383s-0.299 0.067-0.474 0c-1.035-0.43-1.818-1.17-2.349-2.218s-0.796-2.258-0.796-3.629c0-0.887 0.145-1.778 0.434-2.671s0.736-1.754 1.341-2.581c0.605-0.827 1.327-1.563 2.167-2.208s1.868-1.159 3.085-1.542 2.524-0.575 3.921-0.575c1.425 0 2.749 0.246 3.972 0.736s2.248 1.142 3.075 1.955c0.827 0.813 1.475 1.747 1.945 2.803s0.706 2.147 0.706 3.276c0 3.038-0.769 5.548-2.308 7.53s-3.525 2.974-5.957 2.974c-0.807 0-1.563-0.188-2.268-0.564s-1.199-0.827-1.482-1.351c-0.591 2.352-0.948 3.757-1.069 4.214-0.309 1.183-1.035 2.594-2.177 4.234h14.617c1.599 0 2.967-0.568 4.102-1.704s1.704-2.504 1.704-4.103v-19.356c0-1.599-0.568-2.967-1.704-4.103v0z"></path>
</symbol>
<symbol id="icon-time" viewBox="0 0 30 32">
<title>time</title>
<path fill="#898989" style="fill: var(--color2, #898989)" d="M17.63 8.188v8.818c0 0.354-0.275 0.63-0.63 0.63h-6.296c-0.354 0-0.63-0.276-0.63-0.63v-1.26c0-0.354 0.275-0.63 0.63-0.63h4.407v-6.928c0-0.354 0.275-0.63 0.63-0.63h1.259c0.354 0 0.63 0.276 0.63 0.63zM25.815 15.117c0-5.905-4.801-10.707-10.704-10.707s-10.704 4.803-10.704 10.707c0 5.905 4.801 10.707 10.704 10.707s10.704-4.803 10.704-10.707zM30.222 15.117c0 8.346-6.769 15.117-15.111 15.117s-15.111-6.771-15.111-15.117c0-8.346 6.769-15.117 15.111-15.117s15.111 6.771 15.111 15.117z"></path>
</symbol>
<symbol id="icon-twitter-box" viewBox="0 0 32 32">
<title>twitter-box</title>
<path fill="#8dbb5a" style="fill: var(--color1, #8dbb5a)" d="M30.24 1.76c-1.173-1.173-2.587-1.76-4.239-1.76h-20c-1.653 0-3.066 0.587-4.24 1.76s-1.76 2.587-1.76 4.24v20c0 1.653 0.587 3.066 1.76 4.24s2.587 1.761 4.24 1.761h20c1.653 0 3.066-0.587 4.239-1.761s1.761-2.587 1.761-4.24v-20c0-1.653-0.587-3.066-1.76-4.24v0zM24.479 12.313c0.014 0.125 0.021 0.312 0.021 0.563 0 1.167-0.17 2.337-0.51 3.51s-0.861 2.299-1.562 3.375c-0.701 1.076-1.538 2.028-2.51 2.854s-2.139 1.486-3.5 1.979c-1.361 0.494-2.819 0.74-4.375 0.74-2.416 0-4.653-0.653-6.708-1.958 0.333 0.041 0.681 0.062 1.042 0.062 2.014 0 3.826-0.625 5.438-1.875-0.944-0.014-1.788-0.305-2.531-0.875s-1.26-1.292-1.552-2.167c0.361 0.055 0.632 0.083 0.812 0.083 0.306 0 0.66-0.055 1.062-0.166-1.014-0.195-1.868-0.698-2.563-1.511s-1.042-1.74-1.042-2.781v-0.042c0.736 0.347 1.43 0.528 2.083 0.542-1.264-0.847-1.896-2.063-1.896-3.646 0-0.778 0.201-1.514 0.604-2.208 1.097 1.347 2.431 2.424 4 3.229s3.25 1.257 5.042 1.354c-0.069-0.264-0.104-0.597-0.104-1 0-1.208 0.427-2.239 1.281-3.094s1.886-1.281 3.094-1.281c1.278 0 2.341 0.458 3.188 1.375 0.958-0.181 1.889-0.535 2.792-1.062-0.347 1.069-0.993 1.882-1.937 2.437 0.902-0.125 1.743-0.361 2.52-0.709-0.583 0.889-1.313 1.646-2.188 2.271v0z"></path>
</symbol>
</defs>
</svg>
